PathFileType	4	(X/Y/Z)	c:/Users/goper/Files/vsCode/490R/osim_files/A04/A04_SSWS_02.trc
DataRate	CameraRate	NumFrames	NumMarkers	Units                	OrigDataRate	OrigDataStartFrame	OrigNumFrames
120.00	120.00	11	36	mm	120.0	297	1186
                Frame#	Time	LPSIS			LASIS			LTH1			LTH2			LTH3			LTH4			LLFE			LMFE			LSH1			LSH2			LSH3			LSH4			LLMAL			LMMAL			LCAL			LMTP5			LTOE			LMTP1			RPSIS			RASIS			RTH1			RTH2			RTH3			RTH4			RLFE			RMFE			RSH1			RSH2			RSH3			RSH4			RLMAL			RMMAL			RCAL			RMTP1			RTOE			RMTP5		
		X1	Y1	Z1	X2	Y2	Z2	X3	Y3	Z3	X4	Y4	Z4	X5	Y5	Z5	X6	Y6	Z6	X7	Y7	Z7	X8	Y8	Z8	X9	Y9	Z9	X10	Y10	Z10	X11	Y11	Z11	X12	Y12	Z12	X13	Y13	Z13	X14	Y14	Z14	X15	Y15	Z15	X16	Y16	Z16	X17	Y17	Z17	X18	Y18	Z18	X19	Y19	Z19	X20	Y20	Z20	X21	Y21	Z21	X22	Y22	Z22	X23	Y23	Z23	X24	Y24	Z24	X25	Y25	Z25	X26	Y26	Z26	X27	Y27	Z27	X28	Y28	Z28	X29	Y29	Z29	X30	Y30	Z30	X31	Y31	Z31	X32	Y32	Z32	X33	Y33	Z33	X34	Y34	Z34	X35	Y35	Z35	X36	Y36	Z36

297	2.46667	691.54437	1049.07239	461.61938	469.47147	987.90161	535.20801	639.55194	660.48059	558.78717	643.33075	616.30719	558.69568	579.56702	652.37970	560.73120	589.92554	608.46368	560.04816	638.32922	521.97522	545.76929	613.20276	519.83075	407.71375	692.58417	429.91522	543.69275	694.70599	386.11719	541.53412	630.99103	418.81265	535.73145	643.11969	377.16449	532.78876	780.94635	111.38636	492.49283	753.31299	112.82665	409.79169	842.32654	73.40532	433.87268	644.70660	56.55691	535.30017	592.10223	69.49239	478.57681	607.27161	54.03643	432.98947	696.49097	1037.72766	355.22787	476.71936	1007.98663	250.16574	470.35916	715.32806	211.70703	448.19083	679.18408	211.26184	415.91171	742.59912	197.26781	330.57120	694.93109	229.85213	338.15216	577.21680	226.14848	317.08627	575.12628	343.02240	311.94061	341.42947	235.39601	289.73090	299.51654	240.98352	256.99588	361.59451	220.20630	244.14293	315.76959	225.32593	202.42790	127.46391	225.08493	159.29037	148.89365	353.73703	229.33730	55.10448	310.89679	23.57286	150.63969	311.12085	19.88912	179.89484	263.53918	48.15723	137.12431	196.57121
298	2.47500	681.56042	1047.38452	460.77612	459.88098	986.52795	534.63757	633.26123	660.25116	558.19263	637.47833	616.10724	558.24487	573.32056	651.67822	560.12506	584.05170	607.87964	559.56512	633.39069	521.58246	545.36652	608.15302	519.08936	407.34662	688.62726	430.05359	543.31079	691.08142	386.32373	541.21100	627.31067	418.50058	535.74194	639.52905	376.90485	532.54559	780.33209	112.30881	492.30344	752.35651	113.40653	409.51895	841.80182	74.57770	433.58292	644.46368	56.51060	535.31567	591.70148	69.24943	478.61133	606.96362	53.83012	433.05261	686.29285	1035.81006	354.24786	466.27921	1005.95978	249.46994	462.55075	712.31445	212.71700	440.85727	675.80072	212.07581	408.77463	738.67542	198.05429	320.34976	692.86725	229.41673	330.45355	573.83685	228.59467	310.83405	571.64655	345.71719	298.94931	339.18073	236.67726	275.38757	298.07156	241.82874	245.48462	361.31497	220.49805	230.39465	315.76221	225.75693	181.31024	128.17909	224.88750	138.84842	151.24983	352.80496	205.90575	55.21473	310.40939	3.61726	157.61807	308.61713	1.46555	187.18048	261.11539	29.59864	143.73981	194.62794
299	2.48333	671.80444	1045.47095	459.61154	450.13760	985.13312	534.07581	627.25745	660.47131	557.76831	631.19904	615.89502	557.82391	566.85736	650.96857	559.51575	577.85529	607.19055	559.14661	628.11719	521.19690	545.02612	602.62408	518.23883	407.02716	684.22754	430.19769	542.95288	687.19958	386.42737	540.86633	623.08276	417.98285	535.47266	635.76611	376.48770	532.27655	779.53839	113.26147	492.18939	751.41968	114.03652	409.20477	841.31464	75.99298	433.30927	644.45056	56.63256	535.56677	591.29218	68.96740	478.66504	606.63745	53.62557	433.09686	675.96240	1033.82043	353.16971	455.62567	1003.90399	248.86955	453.74597	709.49304	213.45097	432.64871	672.75726	212.49083	399.32806	735.41705	198.12427	310.28342	690.79346	228.84303	322.69861	570.75427	230.49597	304.49396	568.63867	347.93369	286.51099	337.05835	237.67331	261.79465	296.56693	242.57314	233.22008	360.67841	221.43422	217.31960	315.64200	226.14107	163.68271	129.52034	224.20328	120.48453	153.12175	351.94592	185.01457	55.38891	309.64862	-13.91871	164.28372	307.31149	-15.16154	193.37845	259.15973	11.91783	149.40887	192.04399
300	2.49167	661.65015	1043.51086	458.40848	440.31570	983.67908	533.66205	619.76746	659.67944	557.20068	624.58575	615.54382	557.45563	560.08496	650.28680	559.22687	571.34412	606.47729	558.82251	622.28070	520.54602	544.73676	596.64856	517.33087	406.84375	679.58716	430.33411	542.67657	683.24548	386.82138	540.35718	618.57654	417.32190	535.26172	631.68921	375.96930	532.05365	778.64758	114.29928	492.14188	750.44055	114.82766	409.04733	840.69403	77.51230	433.11508	643.92822	56.38740	535.44885	590.90149	68.66102	478.76718	606.32581	53.40467	433.16113	665.39581	1031.70300	351.90082	444.62555	1002.03564	248.37801	444.23413	707.00690	213.74695	423.42291	669.94781	212.64658	389.53937	732.25696	198.19614	300.37378	688.72162	228.13498	315.26114	568.20233	231.47720	297.64420	565.77026	349.56287	274.69888	334.94089	238.52104	249.01372	294.98373	243.17282	221.85808	359.75443	221.98242	205.17589	315.08603	226.54736	147.60951	130.12318	223.76476	104.25357	154.28780	351.34866	166.64594	55.18060	309.04749	-29.87123	168.25049	305.49905	-29.92187	198.11595	257.97760	-3.49017	153.70845	190.72897
301	2.50000	651.40289	1041.55273	457.04727	430.34988	982.12012	533.24896	612.15448	659.12360	556.81116	617.42773	615.09467	557.19727	552.53571	649.12714	558.69727	564.33630	605.65710	558.56433	616.08234	519.88483	544.56390	590.52924	516.30988	406.53900	674.44751	430.37766	542.41742	678.74725	386.88235	540.16760	613.66614	416.74017	535.10693	627.37988	375.51447	531.93054	777.69781	115.44801	492.14804	749.44946	115.96649	408.98630	839.55585	78.65849	433.14920	643.54285	56.27342	535.52405	590.41522	68.38036	478.93292	606.00348	53.10817	433.25983	654.64001	1029.45471	350.56320	433.39893	1000.13647	248.05951	433.73550	704.57666	213.63542	413.19202	667.36688	212.76234	377.52441	729.61023	197.78973	290.62241	686.66357	227.29654	305.79135	564.56000	232.35501	290.40891	562.90417	351.19519	263.58218	332.91470	239.09703	237.23888	293.25403	243.65076	211.55411	358.55185	222.46748	193.42375	313.99152	226.88451	134.61360	130.42834	223.61125	90.25359	154.54880	351.39996	150.75194	54.23447	309.02402	-43.60566	170.85423	305.52402	-43.12141	200.77046	257.65643	-17.09073	156.14601	190.38843
302	2.50833	641.06238	1039.51123	455.49847	420.29410	980.55383	532.94843	604.37366	658.59320	556.57733	610.10333	614.63947	556.98438	544.69836	647.97083	558.32642	556.85474	604.67572	558.35931	609.72620	519.24542	544.43036	583.76709	515.31366	406.51999	669.11847	430.41693	542.24677	674.00684	387.05377	540.01202	608.62469	416.01453	535.04028	622.75275	374.94489	531.81610	776.67480	116.70339	492.21262	748.09949	116.69958	408.70749	839.21576	80.67129	432.86359	643.45392	56.40404	535.90082	589.96460	68.15379	479.12903	605.65924	52.90185	433.37933	643.86975	1027.23523	349.02219	422.06845	998.15247	247.84248	422.33069	702.15936	213.11871	401.90686	664.97485	212.60397	366.91013	726.99152	198.53729	281.03094	684.63135	226.33167	295.89429	561.94708	232.50760	282.82971	559.84979	352.75864	252.82919	330.64767	239.31886	226.32901	291.21725	243.98221	200.67480	356.53009	222.59123	182.55705	312.20142	227.15509	122.80617	128.99068	224.25909	78.43477	153.51741	352.08554	138.36353	52.73248	309.84247	-55.37117	170.89131	306.19925	-54.55395	200.86011	258.21970	-28.64354	156.01884	190.95172
303	2.51667	630.59747	1037.40833	453.90768	410.00577	979.03070	532.74036	596.29541	657.89355	556.48236	602.28485	613.95392	556.88171	536.68726	646.83124	558.06927	549.12921	603.57904	558.12335	602.99097	518.46881	544.34058	576.65082	514.22742	406.45563	663.63519	430.49402	542.15765	669.07843	387.15051	539.90674	602.64465	414.16870	535.36279	618.03693	374.33331	531.79626	775.52429	118.07314	492.28406	746.82428	117.79853	408.61029	838.47137	82.56116	432.80112	643.11847	56.33049	536.04468	589.74603	66.19714	478.29758	605.28705	52.69007	433.51331	632.92096	1024.94666	347.42209	410.50650	996.20447	247.75459	410.17261	699.99994	212.19109	389.53143	662.89771	212.17128	354.54520	725.16815	198.77216	271.60095	682.63684	225.24428	285.48169	560.74457	232.02650	274.85858	556.93622	354.13104	242.51268	328.18066	239.39832	216.22249	288.80722	244.20355	188.93941	354.32922	224.23366	172.47226	309.54114	227.58992	112.92889	126.14561	225.31378	69.03433	150.98334	353.17706	128.94308	50.17726	311.10770	-64.88240	168.39699	308.00317	-64.37924	197.91200	259.57181	-38.64433	152.64059	192.54164
304	2.52500	620.00439	1035.28564	452.15823	399.53806	977.45288	532.53809	587.82312	657.15912	556.43317	594.27838	613.27649	556.86786	528.18353	645.45520	557.77094	541.23126	602.46130	557.89978	595.94238	517.65979	544.32587	569.39374	513.14587	406.47778	657.78491	430.49619	542.11536	663.85815	387.26035	539.82990	597.08929	413.47748	535.36902	613.17914	373.84085	531.82196	774.36176	119.55542	492.42291	745.41364	119.00166	408.51526	837.59222	84.58878	432.76224	642.85315	56.44786	536.32050	589.21606	65.99657	478.50815	604.83411	52.53022	433.66705	621.77570	1022.52521	345.70410	398.92920	994.13367	247.58818	397.31659	698.12573	211.01454	376.33026	661.22650	211.29301	341.51291	723.87140	199.08731	262.33411	680.69202	224.03836	272.24170	559.08429	233.75101	265.71704	554.55627	354.97424	232.82957	325.69107	239.19902	207.06960	286.04700	244.21562	178.82040	351.25513	224.50827	163.14441	306.19974	227.99712	105.06931	122.30083	226.33145	61.93786	146.85631	354.55844	123.07532	47.75253	312.01889	-72.27364	162.69318	310.74319	-72.87271	192.08635	261.77307	-47.24912	146.87926	194.74554
305	2.53333	609.18921	1033.10767	450.27200	387.53680	976.64850	532.51746	579.16907	656.31793	556.40436	586.10120	612.54279	556.85968	519.63373	644.26288	557.57770	533.09357	601.22394	557.67224	588.73645	516.74103	544.36261	561.46820	511.83994	406.65805	651.74921	430.59845	542.05450	658.49902	387.39267	539.81268	591.40186	412.79303	535.36774	607.76904	373.16159	531.74078	773.01807	121.16910	492.57285	743.99896	120.34245	408.50085	836.69104	86.85962	432.72308	642.37683	56.41216	536.52466	588.71143	65.85661	478.68692	604.49890	52.39080	433.75064	610.53522	1020.21094	343.89099	387.11456	992.13727	247.48320	384.03656	696.62506	209.67543	363.36603	660.24323	209.84708	328.38394	722.91150	199.28232	253.23195	678.80872	222.71786	259.31104	558.47498	233.66106	255.35313	552.71735	355.11722	223.59462	323.65326	238.89200	198.62012	283.51337	244.07387	169.06247	348.33206	224.87387	154.28592	302.99344	228.54967	99.39841	118.14664	226.85280	57.27138	141.60052	355.90286	121.25806	46.19315	311.97876	-78.83958	151.80232	312.48743	-80.41480	182.80296	265.60291	-53.55564	139.92749	197.63283
306	2.54167	598.27716	1030.89270	448.36786	377.05942	975.01221	532.44318	570.23761	655.50891	556.44086	577.33710	611.68140	556.91724	510.95587	642.96185	557.29016	524.67908	600.01141	557.47424	580.98126	515.81287	544.30109	555.41370	510.31815	406.27927	645.42639	430.62265	542.01813	652.88342	387.51401	539.80011	585.44562	412.09958	535.35706	602.27997	372.51962	531.74695	771.68530	123.00047	492.68243	742.61816	121.96294	408.19525	835.20844	88.93294	432.86853	641.81421	56.39722	536.76996	588.22803	65.72929	478.85773	604.11310	52.29243	433.88617	599.14014	1017.85425	342.09998	375.28244	989.96088	247.26530	370.23087	695.12659	208.50157	349.21555	659.00146	208.97037	314.58582	722.21826	199.45651	244.29608	676.99890	221.28670	245.88708	557.27350	233.33179	243.82091	551.38055	354.81351	215.53242	323.09671	238.28340	191.18159	282.36389	243.77876	160.28920	346.76709	225.17868	146.34958	301.15286	228.97092	95.35643	115.17953	227.11333	54.14136	137.37389	356.87033	119.81258	44.31967	311.96176	-83.15186	144.93427	314.85675	-86.52090	174.87918	268.31421	-59.27338	133.42934	199.99100
307	2.55000	587.20404	1028.54138	446.49881	366.48370	973.26257	532.14948	561.17957	654.55444	556.52319	568.58362	610.77832	556.83612	501.70505	641.40302	557.03900	515.93292	598.72638	557.30042	573.09961	514.76038	544.33643	547.59210	508.82605	406.28580	638.82800	430.54736	542.07013	647.08398	387.72055	539.75836	579.28400	411.29712	535.33954	596.71179	371.84229	531.76691	770.09106	124.81859	492.83704	740.82532	123.37775	408.16220	834.53741	91.97589	432.73352	641.11896	56.23495	536.85156	587.81372	65.63170	479.04092	603.77289	52.14631	434.00650	587.59265	1015.40204	340.30347	363.17957	988.02667	246.91595	356.54611	693.87134	207.61154	335.13470	657.85419	208.30443	299.61209	721.46991	199.18883	235.52812	675.27466	219.74889	232.99754	556.05176	233.20769	231.43254	550.17767	353.88477	208.62413	324.75888	237.72031	184.96091	283.43530	243.40437	152.68657	347.32388	225.38986	140.61093	302.05054	228.38599	92.13837	114.60748	227.18254	51.65749	135.66118	357.43448	118.75778	44.27538	311.64017	-86.25671	140.49440	316.45123	-90.81783	170.73480	270.19128	-63.41241	129.72739	201.71803
